# WaveFront *.obj file (generated by Autodesk ATF)

mtllib cube.mtl

g Solid1

v 0.000000 0.000000 -1.250000
v 0.000000 0.000000 1.250000
v 0.000000 2.500000 -1.250000
v 0.000000 2.500000 1.250000
v 2.500000 0.000000 -1.250000
v 2.500000 0.000000 1.250000
v 2.500000 2.500000 -1.250000
v 2.500000 2.500000 1.250000
vt -0.125000 -0.125000 0.000000
vt 0.125000 -0.125000 0.000000
vt 0.125000 0.125000 0.000000
vt -0.125000 0.125000 0.000000
vt 0.250000 -0.125000 0.000000
vt 0.250000 0.125000 0.000000
vt 0.000000 0.125000 0.000000
vt 0.000000 -0.125000 0.000000
vt 0.250000 -0.125000 0.000000
vt 0.250000 0.125000 0.000000
vt 0.000000 0.125000 0.000000
vt 0.000000 -0.125000 0.000000
vt 0.250000 -0.125000 0.000000
vt 0.250000 0.125000 0.000000
vt 0.000000 0.125000 0.000000
vt 0.000000 -0.125000 0.000000
vt 0.250000 -0.125000 0.000000
vt 0.250000 0.125000 0.000000
vt 0.000000 0.125000 0.000000
vt 0.000000 -0.125000 0.000000
vt -0.125000 -0.125000 0.000000
vt 0.125000 -0.125000 0.000000
vt 0.125000 0.125000 0.000000
vt -0.125000 0.125000 0.000000
vn 0.000000 0.000000 -0.100000
vn 0.000000 0.000000 -0.100000
vn 0.000000 0.000000 -0.100000
vn 0.000000 0.000000 -0.100000
vn -0.100000 0.000000 0.000000
vn -0.100000 0.000000 0.000000
vn -0.100000 0.000000 0.000000
vn -0.100000 0.000000 0.000000
vn 0.000000 0.100000 0.000000
vn 0.000000 0.100000 0.000000
vn 0.000000 0.100000 0.000000
vn 0.000000 0.100000 0.000000
vn 0.100000 0.000000 0.000000
vn 0.100000 0.000000 0.000000
vn 0.100000 0.000000 0.000000
vn 0.100000 0.000000 0.000000
vn 0.000000 -0.100000 0.000000
vn 0.000000 -0.100000 0.000000
vn 0.000000 -0.100000 0.000000
vn 0.000000 -0.100000 0.000000
vn 0.000000 0.000000 0.100000
vn 0.000000 0.000000 0.100000
vn 0.000000 0.000000 0.100000
vn 0.000000 0.000000 0.100000
usemtl 191,191,191
f 5/1/1 1/2/2 7/4/4
f 7/4/4 1/2/2 3/3/3
f 2/6/6 4/7/7 1/5/5
f 1/5/5 4/7/7 3/8/8
f 4/10/10 8/11/11 3/9/9
f 3/9/9 8/11/11 7/12/12
f 8/14/14 6/15/15 7/13/13
f 7/13/13 6/15/15 5/16/16
f 6/18/18 2/19/19 5/17/17
f 5/17/17 2/19/19 1/20/20
f 2/21/21 6/22/22 4/24/24
f 4/24/24 6/22/22 8/23/23

# 8 vertices
# 24 texture params
# 24 normals
# 12 facets

# 1 groups
